PathFileType	4	(X/Y/Z)
DataRate	CameraRate	NumFrames	NumMarkers	Units	OrigDataRate	OrigDataStartFrame	OrigNumFrames	
  100.0	  100.0	     6	     56	     mm	  100.0	      22	     86
Frame#	Time	LASI			RASI			LPSI			RPSI			RTH1			RTH2			RTH3			RLFC			RMFC			LTH1			LTH2			LTH3			LLFC			LMFC			RTB1			RTB2			RTB3			RLMAL			RMMAL			LTB1			LTB2			LTB3			LMMAL			LLMAL			RCAL			RTOE			RMT5			LCAL			LTOE			LMT5			LACR			RACR			CLAV			C7			LASH			LPSH			RASH			RPSH			RUA1			RUA2			RUA3			RLEL			RMEL			LUA1			LUA2			LUA3			LLEL			LMEL			RFAsuperior			RFAradius			RFAulna			LFAsuperior			LFAradius			LFAulna			RHJC			LHJC			
		X1	Y1	Z1	X2	Y2	Z2	X3	Y3	Z3	X4	Y4	Z4	X5	Y5	Z5	X6	Y6	Z6	X7	Y7	Z7	X8	Y8	Z8	X9	Y9	Z9	X10	Y10	Z10	X11	Y11	Z11	X12	Y12	Z12	X13	Y13	Z13	X14	Y14	Z14	X15	Y15	Z15	X16	Y16	Z16	X17	Y17	Z17	X18	Y18	Z18	X19	Y19	Z19	X20	Y20	Z20	X21	Y21	Z21	X22	Y22	Z22	X23	Y23	Z23	X24	Y24	Z24	X25	Y25	Z25	X26	Y26	Z26	X27	Y27	Z27	X28	Y28	Z28	X29	Y29	Z29	X30	Y30	Z30	X31	Y31	Z31	X32	Y32	Z32	X33	Y33	Z33	X34	Y34	Z34	X35	Y35	Z35	X36	Y36	Z36	X37	Y37	Z37	X38	Y38	Z38	X39	Y39	Z39	X40	Y40	Z40	X41	Y41	Z41	X42	Y42	Z42	X43	Y43	Z43	X44	Y44	Z44	X45	Y45	Z45	X46	Y46	Z46	X47	Y47	Z47	X48	Y48	Z48	X49	Y49	Z49	X50	Y50	Z50	X51	Y51	Z51	X52	Y52	Z52	X53	Y53	Z53	X54	Y54	Z54	X55	Y55	Z55	X56	Y56	Z56	

234	2.34000	726.98546	1022.17554	-612.55278	482.39013	1025.84785	-603.32220	646.82314	1046.05715	-775.27438	549.79935	1044.04210	-774.54709	406.89988	787.49904	-678.06274	412.19600	698.81205	-628.62042	421.02488	610.97789	-701.83163	416.92789	515.83639	-723.76206	524.53263	492.22849	-691.77265	789.55067	826.85188	-668.23218	791.15910	719.62748	-627.01904	782.74254	613.54412	-697.57504	785.01639	527.39246	-688.46286	672.46917	507.47725	-683.06770	450.67304	388.01250	-679.35330	400.08938	322.02603	-727.54629	447.36114	202.90081	-705.53116	412.00265	125.99125	-764.84426	485.04803	138.00581	-729.75647	751.08083	405.65345	-663.08529	808.69531	338.32668	-730.07584	762.16402	219.46875	-688.86176	728.65688	132.60577	-694.98808	800.09996	119.75400	-748.50666	466.78224	108.36204	-813.18426	465.15948	70.92576	-593.19224	368.29585	45.74435	-644.34362	745.49566	107.17988	-797.14659	772.31402	71.28075	-580.43987	860.62392	47.32904	-637.77358	749.20610	1500.93436	-725.05876	466.09393	1506.66305	-710.56408	593.14620	1446.58187	-615.21258	603.26154	1516.56773	-769.06909	761.32036	1452.89675	-657.02317	762.41232	1437.70367	-795.19049	463.27574	1458.18350	-650.58510	431.84700	1448.81860	-778.75101	349.96644	1410.81544	-698.79518	341.43577	1321.98152	-705.72451	280.43505	1314.49250	-626.42815	243.45446	1252.90898	-613.27700	297.92775	1209.64694	-623.42646	856.65762	1391.82869	-730.56613	855.62886	1309.29100	-731.74856	926.47862	1323.18503	-674.70576	978.97135	1259.22795	-651.60201	932.61527	1211.12787	-660.20338	201.59571	1232.02901	-507.89412	208.86714	1158.59281	-382.50595	171.92054	1121.56907	-430.27727	1007.63483	1241.20209	-541.46993	1025.82528	1142.56605	-422.13757	1068.46879	1113.67461	-471.73849	506.41593	937.81996	-654.86260	682.52520	948.48511	-674.79011	
235	2.35000	727.43298	1022.21813	-612.74609	482.58916	1025.69522	-602.95231	646.80393	1046.06576	-774.93769	549.72678	1044.03581	-773.98875	407.00465	787.44477	-677.80600	412.32714	698.74978	-628.41896	421.11587	610.94923	-701.71434	416.94787	515.85997	-723.63282	524.59144	492.16515	-691.75701	789.71040	826.83309	-668.21203	791.34499	719.59868	-627.00276	782.81034	613.50232	-697.48101	785.09553	527.36621	-688.45740	672.58783	507.57070	-682.89155	450.73736	387.99430	-679.34507	400.15152	322.01290	-727.54023	447.42670	202.88558	-705.55989	411.94526	125.93953	-764.82074	484.99314	137.99008	-729.77552	751.15610	405.61661	-663.10915	808.74359	338.29870	-730.09562	762.24210	219.46678	-688.86154	728.62107	132.58483	-695.00215	800.06594	119.72802	-748.51633	466.72652	108.34554	-813.19291	465.11561	70.94844	-593.19443	368.22050	45.77927	-644.31388	745.46456	107.15898	-797.13506	772.27582	71.32780	-580.40702	860.57339	47.32836	-637.79331	749.86473	1500.35698	-724.20878	465.57734	1505.98982	-709.44420	593.12456	1446.21369	-614.56899	603.04572	1516.61296	-768.32948	761.83638	1451.33950	-656.55706	762.30647	1437.45917	-794.79238	462.85070	1456.73639	-649.66220	431.55053	1448.28218	-777.89951	350.67483	1406.99624	-698.77738	343.88572	1317.70805	-708.75099	283.77028	1306.18536	-629.88938	248.59823	1243.09903	-618.50829	304.21697	1201.66772	-630.26732	855.62223	1388.64281	-731.11022	852.57835	1306.00987	-734.32399	922.96184	1316.32226	-676.47302	973.25241	1250.01347	-655.17114	925.40021	1203.58094	-665.29943	208.12322	1217.85632	-513.88504	218.10936	1141.24742	-390.57519	182.24477	1104.25689	-439.47619	1000.50155	1228.20254	-545.31888	1014.59087	1126.28762	-428.42175	1056.16444	1096.72281	-478.08277	506.70840	937.70302	-654.50155	682.76517	948.51838	-674.80852	
236	2.36000	727.77327	1022.28623	-612.72686	482.80949	1025.55691	-602.53462	646.75910	1046.09560	-774.52591	549.65941	1044.02618	-773.40120	407.09914	787.39815	-677.56865	412.48911	698.66661	-628.25823	421.14353	610.91828	-701.57660	416.93657	515.85346	-723.47962	524.63315	492.08876	-691.69254	789.87532	826.81571	-668.12531	791.47389	719.54442	-626.94939	782.86032	613.46274	-697.29867	785.13346	527.33034	-688.31997	672.69099	507.64684	-682.74068	450.81821	387.95372	-679.29365	400.22730	321.96221	-727.50153	447.50876	202.84800	-705.54539	411.84869	125.91010	-764.76079	484.92141	137.96595	-729.77502	751.21661	405.57577	-663.09569	808.78104	338.27391	-730.06666	762.29916	219.46990	-688.85368	728.55525	132.55078	-694.95321	800.00193	119.68896	-748.46298	466.65796	108.33236	-813.19773	465.04284	70.95901	-593.16086	368.10888	45.81855	-644.25360	745.41292	107.14815	-797.14248	772.19285	71.39151	-580.31294	860.48885	47.29451	-637.71676	750.60191	1499.67997	-723.33417	464.94889	1505.27624	-708.21728	593.11258	1445.83183	-613.86132	602.89115	1516.68510	-767.53400	762.42964	1449.87246	-655.98659	762.12906	1437.17084	-794.30052	462.41832	1455.24333	-648.65381	431.16298	1447.82699	-776.99341	351.27266	1403.31894	-698.65251	346.31474	1313.84232	-711.71902	287.47278	1298.19996	-633.28337	254.05534	1233.65221	-623.84555	310.82029	1194.16568	-637.05603	854.46826	1385.45747	-731.64712	849.24135	1302.91297	-736.82998	919.16427	1309.49029	-678.35278	967.17715	1241.00265	-658.89246	917.74315	1196.34795	-670.31709	215.14966	1203.85022	-520.39915	227.70678	1124.40934	-399.03049	193.03437	1087.42152	-449.17706	992.98968	1215.51350	-549.37273	1003.10189	1110.46641	-435.01933	1043.52646	1080.40027	-485.01637	506.97622	937.59433	-654.04689	682.98286	948.57444	-674.69578	
237	2.37000	727.91831	1022.39993	-612.36962	483.01238	1025.42786	-602.12308	646.70539	1046.15390	-774.07089	549.62742	1044.02134	-772.87107	407.18931	787.35672	-677.30937	412.67554	698.56294	-628.13813	421.12502	610.88651	-701.38070	416.92843	515.81350	-723.35488	524.67726	492.01216	-691.60693	790.04422	826.80897	-667.98848	791.54771	719.47831	-626.90028	782.91279	613.43943	-697.06428	785.16322	527.30810	-688.13168	672.77754	507.66694	-682.66177	450.91404	387.89897	-679.22211	400.31558	321.88823	-727.46572	447.60574	202.79630	-705.51077	411.73473	125.89122	-764.67678	484.86094	137.93827	-729.76336	751.27297	405.54123	-663.05309	808.81986	338.25671	-730.00744	762.33794	219.46538	-688.83818	728.48775	132.52725	-694.89519	799.93628	119.66042	-748.40052	466.59236	108.31820	-813.20122	464.96529	70.95967	-593.10901	367.98771	45.85721	-644.19205	745.35482	107.14333	-797.15044	772.05288	71.45539	-580.20776	860.40531	47.26013	-637.61902	751.39796	1498.92581	-722.41320	464.19838	1504.54834	-706.93845	593.09110	1445.43712	-613.11826	602.73735	1516.75108	-766.68777	763.03704	1448.37354	-655.33548	761.87733	1436.80171	-793.61410	461.77702	1453.70563	-647.61656	430.72727	1447.42758	-776.09983	351.78558	1399.65652	-698.70811	348.75931	1310.36048	-714.61477	291.51933	1290.53308	-636.50132	259.77472	1224.63466	-629.22739	317.70705	1187.20338	-643.78696	853.19712	1382.25162	-732.06704	845.64279	1299.92890	-739.25391	915.12489	1302.72222	-680.40887	960.87070	1232.28710	-662.68973	909.91713	1189.47630	-675.22398	222.52453	1190.20971	-527.12241	237.70068	1108.03323	-407.78623	204.13413	1071.13654	-459.09611	985.19106	1203.21026	-553.60131	991.37901	1095.15608	-441.90128	1030.64947	1064.76370	-492.59795	507.19145	937.49028	-653.54283	683.16074	948.67011	-674.39727	
238	2.38000	727.97794	1022.57363	-611.91619	483.20121	1025.31690	-601.72600	646.67624	1046.23468	-773.61977	549.64644	1044.02956	-772.43206	407.29370	787.32036	-677.02844	412.85800	698.46756	-628.03309	421.09302	610.86640	-701.11564	416.93778	515.76724	-723.26561	524.73628	491.94771	-691.52744	790.20979	826.81401	-667.83377	791.59952	719.42439	-626.84884	782.97958	613.43433	-696.82779	785.21356	527.31720	-687.98870	672.84910	507.65254	-682.64621	451.01462	387.85650	-679.16664	400.40626	321.83335	-727.46641	447.70747	202.75687	-705.49226	411.63353	125.87015	-764.58781	484.82713	137.91540	-729.75601	751.33679	405.52454	-662.99604	808.86729	338.25076	-729.94697	762.37906	219.45656	-688.80758	728.44101	132.53471	-694.89088	799.89137	119.66288	-748.39175	466.54142	108.30409	-813.20306	464.90794	70.96115	-593.06697	367.87945	45.89817	-644.15537	745.30782	107.14571	-797.16378	771.85531	71.51808	-580.12846	860.35210	47.26334	-637.60313	752.18550	1498.15635	-721.43575	463.36889	1503.84245	-705.68104	593.02315	1445.04560	-612.38967	602.50672	1516.79428	-765.81045	763.55225	1446.71919	-654.65378	761.63966	1436.38620	-792.88784	460.84577	1452.20748	-646.58474	430.31306	1447.03180	-775.26881	352.36172	1395.94156	-699.09228	351.26420	1307.12362	-717.44527	295.77222	1283.16000	-639.59075	265.68280	1216.08982	-634.58527	324.77522	1180.79733	-650.48171	851.84098	1379.00533	-732.31841	841.89237	1296.98061	-741.70266	910.90647	1296.09599	-682.62550	954.41105	1223.92688	-666.49374	902.13384	1182.98885	-679.97973	230.08785	1177.17855	-533.75244	248.07147	1092.13709	-416.77364	215.44789	1055.48662	-469.14362	977.21233	1191.32742	-557.99162	979.42457	1080.39580	-449.06044	1017.56719	1049.79753	-500.60369	507.39605	937.40474	-653.06493	683.33758	948.80852	-674.02701	
239	2.39000	728.10905	1022.71039	-611.66399	483.41853	1025.23470	-601.28793	646.70185	1046.32100	-773.21708	549.71791	1044.04822	-772.06799	407.41832	787.28898	-676.75523	413.01589	698.39827	-627.91352	421.10823	610.85957	-700.85962	416.96753	515.73996	-723.17651	524.81540	491.89302	-691.46210	790.36909	826.81681	-667.67392	791.68172	719.39525	-626.74513	783.06391	613.43435	-696.62205	785.29085	527.34356	-687.90814	672.91478	507.64431	-682.63392	451.11408	387.84056	-679.13573	400.49386	321.82083	-727.49009	447.80809	202.74396	-705.49830	411.57532	125.84795	-764.52196	484.81904	137.89797	-729.76170	751.41252	405.52008	-662.92726	808.92182	338.25057	-729.89759	762.44689	219.45855	-688.75398	728.42046	132.56439	-694.94299	799.87263	119.68754	-748.43939	466.51409	108.29152	-813.20628	464.88212	70.96890	-593.04941	367.80490	45.93757	-644.14506	745.28630	107.15430	-797.20242	771.65316	71.58570	-580.07392	860.33336	47.30355	-637.68477	752.89606	1497.42499	-720.40552	462.53000	1503.16550	-704.46402	592.89768	1444.66945	-611.69673	602.16636	1516.81208	-764.94577	763.89223	1444.89699	-653.95757	761.57857	1436.00714	-792.50774	459.73348	1450.82442	-645.54651	429.97269	1446.59301	-774.50231	353.14729	1392.19977	-699.68896	353.87558	1303.95446	-720.23103	300.06089	1276.06802	-642.68415	271.71397	1208.03290	-639.86697	331.85112	1174.91864	-657.07537	850.43209	1375.74357	-732.43281	838.13649	1293.98553	-744.31289	906.56879	1289.70840	-684.91169	947.80313	1215.95794	-670.26974	894.43818	1176.89542	-684.65733	237.76064	1164.85546	-540.19037	258.70385	1076.78336	-425.97816	226.98987	1040.55504	-479.37560	969.12920	1179.86556	-562.54770	967.24212	1066.20957	-456.48002	1004.25405	1035.47207	-508.85777	507.61553	937.35544	-652.66447	683.53346	948.91628	-673.73907	
